#!OML:ASF F:\VICON\USERDATA\INSTALL\rory3\rory3.ASF
:FULLY-SPECIFIED
:DEGREES
267
root 1.01798 17.9935 15.4254 -2.94022 -0.910233 1.15883
lowerback 10.9271 -0.287881 -3.04177
upperback 0.732237 -0.692369 1.14266
thorax -5.31576 -0.256854 3.02027
lowerneck -17.0887 -2.53429 -1.78269
upperneck 16.8068 -3.3065 1.43522
head 8.07679 -1.53752 0.378169
rclavicle -5.34234e-015 -6.75868e-015
rhumerus -32.5448 -24.0871 -76.0794
rradius 25.5836
rwrist 6.64075
rhand -16.9095 21.1737
rfingers 7.12502
rthumb 9.32267 -8.60013
lclavicle -5.34234e-015 -6.75868e-015
lhumerus -29.0842 0.345054 82.8477
lradius 28.8771
lwrist 8.72857
lhand -25.7194 21.6833
lfingers 7.12502
lthumb 0.816793 51.6615
rfemur -30.2621 0.23498 20.8198
rtibia 52.5472
rfoot -9.83314 -6.71266
rtoes -5.88186
lfemur 1.8901 -1.57189 -27.1758
ltibia 23.4557
lfoot -15.5734 -3.4537
ltoes 3.98061
268
root 1.0111 17.9977 15.5857 -2.76797 -0.735634 0.880073
lowerback 10.983 -0.397954 -2.81547
upperback 0.74685 -0.805262 1.26501
thorax -5.32447 -0.316414 3.03873
lowerneck -17.3958 -2.53632 -1.69239
upperneck 16.8705 -3.30895 1.33879
head 8.14865 -1.54039 0.327104
rclavicle -3.90115e-015 2.18663e-014
rhumerus -32.5866 -23.9355 -76.2081
rradius 25.519
rwrist 5.50472
rhand -17.5107 20.4621
rfingers 7.12502
rthumb 8.74256 -9.33679
lclavicle -3.90115e-015 2.18663e-014
lhumerus -28.4756 0.33883 82.777
lradius 29.1067
lwrist 8.37795
lhand -25.206 23.2301
lfingers 7.12502
lthumb 1.31261 53.2058
rfemur -30.3493 0.710178 20.9837
rtibia 49.5552
rfoot -9.13302 -7.94279
rtoes -5.40737
lfemur 2.62879 -1.66334 -26.8649
ltibia 22.6537
lfoot -15.4351 -3.7567
ltoes 4.69577
269
root 1.0053 18.0105 15.7511 -2.54629 -0.412442 0.998903
lowerback 11.0048 -0.543064 -3.01834
upperback 0.593743 -1.02133 1.32657
thorax -5.4777 -0.41194 3.25407
lowerneck -17.2052 -2.5565 -1.84556
upperneck 16.8125 -3.30993 1.39247
head 8.09953 -1.54682 0.372383
rclavicle -3.75206e-015 -1.23246e-014
rhumerus -32.8661 -23.423 -76.266
rradius 25.5903
rwrist 4.15803
rhand -17.3711 20.7856
rfingers 7.12502
rthumb 8.87726 -9.00765
lclavicle -3.75206e-015 -1.23246e-014
lhumerus -28.3005 0.0482007 82.8144
lradius 29.3643
lwrist 8.51737
lhand -24.5026 25.9039
lfingers 7.12502
lthumb 1.99193 55.8744
rfemur -30.5021 1.06587 20.6539
rtibia 46.4708
rfoot -7.96841 -9.61071
rtoes -4.8388
lfemur 3.32739 -1.86526 -27.0186
ltibia 21.7553
lfoot -15.1311 -4.04865
ltoes 5.26152
270
root 0.993639 18.0129 15.9272 -2.2718 0.0322997 1.34496
lowerback 10.6555 -0.645302 -3.45137
upperback 0.606832 -1.2003 1.31698
thorax -5.24596 -0.495184 3.50754
lowerneck -17.1819 -2.62157 -2.06663
upperneck 16.6826 -3.36627 1.52429
head 8.0594 -1.57485 0.446468
rclavicle -6.36111e-015 5.1684e-015
rhumerus -32.8855 -23.6297 -76.136
rradius 25.553
rwrist 3.65395
rhand -17.2755 20.6418
rfingers 7.12502
rthumb 8.96952 -9.14756
lclavicle -6.36111e-015 5.1684e-015
lhumerus -27.6821 -0.448519 82.9523
lradius 29.3181
lwrist 8.84989
lhand -24.7027 24.8917
lfingers 7.12502
lthumb 1.79868 54.8639
rfemur -30.4964 1.19396 20.156
rtibia 43.315
rfoot -7.1008 -11.287
rtoes -5.12192
lfemur 4.11695 -2.00944 -27.3743
ltibia 20.8474
lfoot -15.0375 -4.21969
ltoes 4.93227
271
root 0.979388 18.0093 16.1043 -2.02257 0.334181 1.50592
lowerback 10.2844 -0.705946 -3.73525
upperback 0.721261 -1.29978 1.332
thorax -4.90297 -0.548004 3.68678
lowerneck -17.4007 -2.6297 -2.01775
upperneck 16.6143 -3.36524 1.4313
head 8.07221 -1.57938 0.405441
rclavicle 7.95139e-016 -6.36111e-015
rhumerus -32.7304 -24.0551 -76.0517
rradius 25.3886
rwrist 3.699
rhand -17.3424 21.775
rfingers 7.12502
rthumb 8.90492 -8.01706
lclavicle 7.95139e-016 -6.36111e-015
lhumerus -26.9204 -0.870366 83.03
lradius 29.3238
lwrist 9.27098
lhand -25.7659 23.1985
lfingers 7.12502
lthumb 0.771854 53.1769
rfemur -30.4323 1.28937 19.9492
rtibia 40.0553
rfoot -6.00774 -12.6984
rtoes -7.35113
lfemur 5.12423 -1.79012 -27.4568
ltibia 19.7946
lfoot -15.1961 -4.21884
ltoes 3.50616
272
root 0.966312 18.0116 16.2745 -1.85493 0.521829 1.31425
lowerback 10.344 -0.762876 -3.62031
upperback 0.635043 -1.36143 1.40147
thorax -5.02223 -0.575806 3.70657
lowerneck -17.4238 -2.60428 -1.8218
upperneck 16.5702 -3.35685 1.31396
head 8.0556 -1.57486 0.335446
rclavicle -1.9456e-014 -9.93923e-015
rhumerus -33.0594 -24.1835 -75.8932
rradius 25.4563
rwrist 4.04842
rhand -16.9529 22.7242
rfingers 7.12502
rthumb 9.2808 -7.05148
lclavicle -1.9456e-014 -9.93923e-015
lhumerus -26.6436 -1.28935 83.0164
lradius 29.4917
lwrist 9.57378
lhand -26.3832 22.7533
lfingers 7.12502
lthumb 0.175611 52.733
rfemur -30.0801 1.65562 20.0282
rtibia 36.755
rfoot -5.68491 -13.9128
rtoes -6.39188
lfemur 6.12707 -1.62793 -27.1574
ltibia 18.801
lfoot -15.1682 -4.29355
ltoes 2.76351
273
root 0.95859 18.0153 16.4474 -1.63371 0.862504 1.54759
lowerback 10.3805 -0.856291 -3.89246
upperback 0.442053 -1.5221 1.3831
thorax -5.225 -0.640404 3.86909
lowerneck -17.2829 -2.63806 -1.71249
upperneck 16.5534 -3.40796 1.18394
head 8.02165 -1.6064 0.27009
rclavicle -2.36057e-015 -3.57812e-015
rhumerus -33.6886 -23.9977 -75.6345
rradius 25.6349
rwrist 4.10699
rhand -16.6789 21.7366
rfingers 7.12502
rthumb 9.54518 -8.02721
lclavicle -2.36057e-015 -3.57812e-015
lhumerus -26.4721 -1.55209 82.9946
lradius 29.5412
lwrist 9.36644
lhand -25.1448 22.8871
lfingers 7.12502
lthumb 1.37174 52.8624
rfemur -29.8515 1.43574 19.7759
rtibia 33.3384
rfoot -4.73809 -15.001
rtoes -6.5384
lfemur 6.95865 -1.55756 -27.3188
ltibia 17.9243
lfoot -15.0536 -4.68846
ltoes 2.60745
